# xmcd
#
# Track frame offsets:
#	150
#	14839
#	35689
#	46132
#	49136
#	75608
#	90702
#	108609
#	137766
#	159207
#	174040
#	193992
#	214506
#	229620
#	258951
#
# Disc length: 3918 seconds
#
# Revision: 0
# Processed by: cddbd v1.4PL0 Copyright (c) Steve Scherf et al.
# Submitted via: EasyCDDAExtractor 4.6.0.1
#
DISCID=c20f4c0f
DTITLE=Brian Burns - The Eagle and The Snake
DYEAR=2001
DGENRE=Country
TTITLE0=Man Walks Among Us
TTITLE1=El Llano Estacado
TTITLE2=Travis' Letter
TTITLE3=Deguello
TTITLE4=Ballad Of The Alamo
TTITLE5=Goliad
TTITLE6=Evangelina
TTITLE7=Gallo Del Cielo
TTITLE8=The Crash At Crush
TTITLE9=I've Been Everywhere (In Texas)
TTITLE10=Well Of The Blues
TTITLE11=Walker Behind The Wheel
TTITLE12=A Cowboy's Prayer
TTITLE13=Third Coast
TTITLE14=The Last Living Cowboy
EXTD=
EXTT0=
EXTT1=
EXTT2=
EXTT3=
EXTT4=
EXTT5=
EXTT6=
EXTT7=
EXTT8=
EXTT9=
EXTT10=
EXTT11=
EXTT12=
EXTT13=
EXTT14=
PLAYORDER=
